<svg width="46" height="12" viewBox="0 0 46 12" fill="none" xmlns="http://www.w3.org/2000/svg">
<path d="M0.0567627 8.99998V0.272705H1.11358V8.06248H5.1704V8.99998H0.0567627Z" fill="black"/>
<path d="M9.41472 9.13634C8.78404 9.13634 8.24 8.99714 7.78261 8.71873C7.32807 8.43748 6.97722 8.04543 6.73006 7.54259C6.48574 7.03691 6.36358 6.44884 6.36358 5.77839C6.36358 5.10793 6.48574 4.51702 6.73006 4.00566C6.97722 3.49146 7.32097 3.09089 7.76131 2.80396C8.20449 2.51418 8.72154 2.3693 9.31244 2.3693C9.65335 2.3693 9.99 2.42611 10.3224 2.53975C10.6548 2.65339 10.9573 2.83805 11.2301 3.09373C11.5028 3.34657 11.7201 3.6818 11.882 4.09941C12.044 4.51702 12.1249 5.03123 12.1249 5.64202V6.06816H7.07949V5.19884H11.1022C11.1022 4.82952 11.0284 4.49998 10.8806 4.21021C10.7357 3.92043 10.5284 3.69174 10.2585 3.52413C9.99142 3.35651 9.67608 3.27271 9.31244 3.27271C8.91188 3.27271 8.56529 3.37214 8.27267 3.571C7.9829 3.76702 7.75989 4.02271 7.60364 4.33805C7.44739 4.65339 7.36926 4.99146 7.36926 5.35225V5.9318C7.36926 6.42611 7.45449 6.84515 7.62494 7.1889C7.79824 7.52981 8.0383 7.78975 8.34511 7.96873C8.65193 8.14486 9.00847 8.23293 9.41472 8.23293C9.67892 8.23293 9.91756 8.196 10.1306 8.12214C10.3465 8.04543 10.5326 7.9318 10.6889 7.78123C10.8451 7.62782 10.9659 7.43748 11.0511 7.21021L12.0227 7.48293C11.9204 7.81248 11.7485 8.10225 11.507 8.35225C11.2656 8.59941 10.9673 8.79259 10.6122 8.9318C10.257 9.06816 9.8579 9.13634 9.41472 9.13634Z" fill="black"/>
<path d="M14.229 2.45452L15.7972 5.13066L17.3654 2.45452H18.5244L16.4108 5.72725L18.5244 8.99998H17.3654L15.7972 6.46021L14.229 8.99998H13.0699L15.1494 5.72725L13.0699 2.45452H14.229Z" fill="black"/>
<path d="M19.6015 8.99998V0.272705H23.3856C24.0504 0.272705 24.6086 0.362194 25.0603 0.541171C25.5149 0.720148 25.8572 0.972989 26.0873 1.29969C26.3203 1.6264 26.4367 2.01134 26.4367 2.45452C26.4367 2.77555 26.3657 3.06816 26.2237 3.33236C26.0845 3.59657 25.8884 3.81816 25.6356 3.99714C25.3828 4.17327 25.0873 4.29543 24.7492 4.36361V4.44884C25.1242 4.46305 25.4651 4.55822 25.772 4.73435C26.0788 4.90765 26.3231 5.1477 26.5049 5.45452C26.6867 5.7585 26.7776 6.11646 26.7776 6.52839C26.7776 7.00566 26.6526 7.43038 26.4026 7.80254C26.1555 8.17469 25.8032 8.46731 25.3458 8.68038C24.8884 8.89344 24.343 8.99998 23.7095 8.99998H19.6015ZM21.9708 7.10793H23.0788C23.4765 7.10793 23.7748 7.03407 23.9737 6.88634C24.1725 6.73577 24.272 6.51418 24.272 6.22157C24.272 6.01702 24.2251 5.84373 24.1313 5.70168C24.0376 5.55964 23.9041 5.45168 23.7308 5.37782C23.5603 5.30396 23.3543 5.26702 23.1129 5.26702H21.9708V7.10793ZM21.9708 3.80111H22.9424C23.1498 3.80111 23.333 3.76844 23.4921 3.7031C23.6512 3.63776 23.7748 3.54401 23.8629 3.42185C23.9538 3.29685 23.9992 3.14486 23.9992 2.96589C23.9992 2.696 23.9026 2.49003 23.7095 2.34799C23.5163 2.2031 23.272 2.13066 22.9765 2.13066H21.9708V3.80111Z" fill="black"/>
<path d="M30.0035 0.272705V8.99998H27.6512V0.272705H30.0035Z" fill="black"/>
<path d="M34.3554 9.1193C33.6452 9.1193 33.0372 8.97867 32.5316 8.69742C32.0259 8.41333 31.6381 8.01844 31.3682 7.51276C31.0983 7.00424 30.9634 6.41475 30.9634 5.7443C30.9634 5.07384 31.0983 4.48577 31.3682 3.98009C31.6381 3.47157 32.0259 3.07668 32.5316 2.79543C33.0372 2.51134 33.6452 2.3693 34.3554 2.3693C35.0656 2.3693 35.6736 2.51134 36.1793 2.79543C36.685 3.07668 37.0727 3.47157 37.3426 3.98009C37.6125 4.48577 37.7475 5.07384 37.7475 5.7443C37.7475 6.41475 37.6125 7.00424 37.3426 7.51276C37.0727 8.01844 36.685 8.41333 36.1793 8.69742C35.6736 8.97867 35.0656 9.1193 34.3554 9.1193ZM34.3725 7.38066C34.5713 7.38066 34.7432 7.3139 34.8881 7.18038C35.033 7.04685 35.1452 6.85651 35.2247 6.60935C35.3043 6.36219 35.3441 6.06816 35.3441 5.72725C35.3441 5.3835 35.3043 5.08947 35.2247 4.84515C35.1452 4.59799 35.033 4.40765 34.8881 4.27413C34.7432 4.1406 34.5713 4.07384 34.3725 4.07384C34.1622 4.07384 33.9818 4.1406 33.8313 4.27413C33.6807 4.40765 33.5656 4.59799 33.4861 4.84515C33.4065 5.08947 33.3668 5.3835 33.3668 5.72725C33.3668 6.06816 33.4065 6.36219 33.4861 6.60935C33.5656 6.85651 33.6807 7.04685 33.8313 7.18038C33.9818 7.3139 34.1622 7.38066 34.3725 7.38066Z" fill="black"/>
<path d="M41.8554 11.5909C41.1992 11.5909 40.6367 11.4971 40.1679 11.3096C39.702 11.125 39.3398 10.8693 39.0813 10.5426C38.8256 10.2187 38.6821 9.84657 38.6509 9.42611H40.9179C40.9406 9.56532 40.9975 9.67753 41.0884 9.76276C41.1793 9.84799 41.2958 9.90907 41.4378 9.946C41.5827 9.98577 41.7446 10.0057 41.9236 10.0057C42.2276 10.0057 42.479 9.9318 42.6779 9.78407C42.8796 9.63634 42.9804 9.3693 42.9804 8.98293V7.87498H42.9122C42.827 8.09657 42.6963 8.28549 42.5202 8.44174C42.3441 8.59515 42.1324 8.71305 41.8852 8.79543C41.6381 8.87498 41.3668 8.91475 41.0713 8.91475C40.6054 8.91475 40.1764 8.8068 39.7844 8.59089C39.3952 8.37498 39.0827 8.03265 38.8469 7.5639C38.6139 7.09515 38.4975 6.48293 38.4975 5.72725C38.4975 4.93748 38.6196 4.29543 38.8639 3.80111C39.1111 3.3068 39.4293 2.94458 39.8185 2.71447C40.2105 2.48435 40.6225 2.3693 41.0543 2.3693C41.3781 2.3693 41.6622 2.42611 41.9066 2.53975C42.1509 2.65055 42.3554 2.79969 42.5202 2.98719C42.685 3.17185 42.81 3.37498 42.8952 3.59657H42.9463V2.45452H45.2986V8.98293C45.2986 9.53691 45.1551 10.0071 44.8682 10.3934C44.5841 10.7826 44.1835 11.0795 43.6665 11.2841C43.1494 11.4886 42.5458 11.5909 41.8554 11.5909ZM41.9406 7.2443C42.1565 7.2443 42.3412 7.18464 42.4946 7.06532C42.6509 6.94316 42.7702 6.76986 42.8526 6.54543C42.9378 6.31816 42.9804 6.04543 42.9804 5.72725C42.9804 5.40339 42.9378 5.1264 42.8526 4.89629C42.7702 4.66333 42.6509 4.48577 42.4946 4.36361C42.3412 4.23861 42.1565 4.17611 41.9406 4.17611C41.7247 4.17611 41.5401 4.23861 41.3867 4.36361C41.2361 4.48577 41.1196 4.66333 41.0372 4.89629C40.9577 5.1264 40.9179 5.40339 40.9179 5.72725C40.9179 6.05111 40.9577 6.32668 41.0372 6.55396C41.1196 6.77839 41.2361 6.95026 41.3867 7.06958C41.5401 7.18606 41.7247 7.2443 41.9406 7.2443Z" fill="black"/>
</svg>
